<svg width="13" height="13" viewBox="0 0 13 13" fill="none" xmlns="http://www.w3.org/2000/svg">
<path d="M4.66974 0.350653L11.7159 0.350653C11.9494 0.350688 12.1734 0.443478 12.3385 0.608617C12.5037 0.773756 12.5965 0.997722 12.5965 1.23126L12.5965 8.2774C12.5925 8.50831 12.4979 8.72839 12.3332 8.89027C12.1685 9.05214 11.9468 9.14284 11.7159 9.14284C11.4849 9.14284 11.2632 9.05214 11.0985 8.89027C10.9338 8.72839 10.8393 8.50831 10.8353 8.2774L10.8353 3.35744L2.58778 11.6049C2.42261 11.7701 2.19859 11.8629 1.965 11.8629C1.73142 11.8629 1.5074 11.7701 1.34222 11.6049C1.17705 11.4397 1.08426 11.2157 1.08426 10.9821C1.08426 10.7486 1.17705 10.5245 1.34222 10.3594L9.58971 2.11188L4.66974 2.11188C4.55281 2.11391 4.43664 2.09263 4.32802 2.04929C4.2194 2.00595 4.1205 1.94141 4.03709 1.85943C3.95368 1.77746 3.88743 1.67969 3.8422 1.57184C3.79698 1.46399 3.77369 1.34821 3.77369 1.23126C3.77369 1.11431 3.79698 0.998537 3.8422 0.890685C3.88743 0.782834 3.95368 0.68507 4.03709 0.603095C4.1205 0.521122 4.2194 0.456581 4.32802 0.413238C4.43664 0.369896 4.55281 0.34862 4.66974 0.350653Z" fill="white" stroke="white" stroke-width="0.5"/>
</svg>
